<?xml version="1.0" encoding="iso-8859-1"?>
<!-- Uploaded to: SVG Repo, www.svgrepo.com, Generator: SVG Repo Mixer Tools -->
<!DOCTYPE svg PUBLIC "-//W3C//DTD SVG 1.1//EN" "http://www.w3.org/Graphics/SVG/1.1/DTD/svg11.dtd">
<svg fill="#000000" height="800px" width="800px" version="1.1" id="Capa_1" xmlns="http://www.w3.org/2000/svg" xmlns:xlink="http://www.w3.org/1999/xlink" 
	 viewBox="0 0 460.143 460.143" xml:space="preserve">
<path d="M342.195,408.854L318.629,281.62c-8.273-44.663-50.439-64.654-88.559-64.653c-38.118,0-80.283,19.992-88.555,64.653
	l-23.57,127.233c-0.542,2.921,0.245,5.932,2.145,8.216s4.717,3.605,7.688,3.605l79.208-0.003c5.522,0,10-4.478,10-10
	c0-5.523-4.478-10-10-10l-67.186-0.2l3.417-18.65H261.07v17.378c-15,4.296-24.693,17.469-24.693,33.009
	c0,9.339,3.566,18.083,10.229,24.62c3.943,3.867,10.222,3.808,14.09-0.136c3.868-3.942,3.781-10.273-0.162-14.142
	c-2.798-2.745-4.352-6.418-4.352-10.343c0-7.988,6.491-14.487,14.478-14.487c7.989,0,14.485,6.499,14.485,14.487
	c0,4.07-1.644,7.839-4.625,10.611c-4.044,3.761-4.275,10.089-0.514,14.133c1.97,2.119,4.643,3.19,7.325,3.19
	c2.438,0,4.881-0.886,6.807-2.677c6.993-6.503,11.212-15.709,11.212-25.258c0-15.54-10.28-28.713-24.28-33.01v-17.377h35.853
	l5.606,30.473c1.006,5.43,6.221,9.117,11.654,8.113C339.614,419.401,343.201,414.284,342.195,408.854z M270.757,361.821
	c-0.069,0-0.138,0-0.207,0H146.923l14.257-76.762c6.179-33.362,39.052-48.194,68.89-48.194
	c29.839-0.001,62.713,14.781,68.894,48.145l14.255,76.812H270.757z M240.071,282.657c0,5.522-4.475,10.164-9.998,10.164h-0.004
	c-5.523,0-10-4.642-10-10.164s4.477-10.164,10-10.164S240.071,277.135,240.071,282.657z M157.323,106.37
	c-0.856,36.227,12.931,65.434,37.995,80.323c10.718,6.368,22.735,9.552,34.753,9.552s24.035-3.184,34.753-9.552
	c25.064-14.89,38.851-44.096,37.995-80.323l18.56-54.191c0.864-2.521,0.685-5.283-0.496-7.672s-3.183-4.208-5.71-5.053
	c-14.703-4.914-30.101-8.519-46.101-10.745v-10.09c0-0.968-0.221-1.903-0.478-2.789C265.571,1.193,238.551,0,229.971,0
	c-9.096,0-38.901,1.343-38.901,18.619v10.09c-16,2.227-31.402,5.831-46.101,10.745c-2.527,0.846-4.57,2.664-5.751,5.053
	c-1.181,2.389-1.338,5.15-0.475,7.671L157.323,106.37z M254.608,169.483c-15.135,8.992-33.94,8.984-49.075-0.008
	c-16.893-10.036-26.881-29.654-28.117-54.654h105.309C281.489,139.821,271.501,159.447,254.608,169.483z M211.07,22.516
	c3-1.13,9.751-2.516,18.943-2.516c9.305,0,16.057,1.42,19.057,2.557V37.44c0,0.07,0,0.14,0,0.209c0,10.445-7.85,19.762-19,23.382
	c-11.148-3.619-19-12.933-19-23.376c0-0.074,0-0.147,0-0.222V22.516z M192.768,48.692c4.327,15.58,17.501,28.217,34.952,32.442
	c1.547,0.375,3.161,0.375,4.708,0c17.449-4.226,30.623-16.862,34.95-32.442c10.881,1.57,21.499,3.813,31.742,6.735l-13.498,39.394
	H174.519l-13.496-39.394C171.265,52.505,181.885,50.263,192.768,48.692z M240.071,321.795c0,5.522-4.475,10.026-9.998,10.026h-0.004
	c-5.523,0-10-4.504-10-10.026s4.477-10.026,10-10.026S240.071,316.272,240.071,321.795z"/>
</svg>